<svg width="243" height="209" viewBox="0 0 243 209" fill="none" xmlns="http://www.w3.org/2000/svg">
<path d="M122.229 71.0239C122.229 84.1756 106.062 98.5206 103.066 111.893C102.512 114.364 103.958 116.724 106.166 117.963L122.229 126.973" stroke="#1C1C1E" stroke-width="16" stroke-linecap="round"/>
<circle cx="69.2532" cy="44.9336" r="36.9336" fill="#AF52DE" stroke="#1C1C1E" stroke-width="16"/>
<circle cx="176.514" cy="44.9336" r="36.9336" fill="#AF52DE" stroke="#1C1C1E" stroke-width="16"/>
<path d="M105.49 37.6861V37.6861C115.096 28.0798 130.671 28.0798 140.277 37.6861V37.6861" stroke="#1C1C1E" stroke-width="16"/>
<mask id="path-5-outside-1_68_25" maskUnits="userSpaceOnUse" x="0.000427246" y="108.655" width="243" height="101" fill="black">
<rect fill="white" x="0.000427246" y="108.655" width="243" height="101"/>
<path d="M145.831 124.655C157.083 124.655 163.322 136.203 170.81 145.652C176.588 152.942 183.907 153.718 196.852 152.942C207.982 152.275 220.193 144.776 225.153 141.413C225.931 140.886 226.98 141.6 226.72 142.504C220.375 164.619 200.13 192.934 166.733 192.934C142.759 192.934 129.05 185.669 122.846 174.979C122.427 174.257 121.333 174.257 120.914 174.979C114.71 185.669 101.002 192.934 77.0287 192.934C43.6311 192.934 23.3856 164.619 17.0402 142.504C16.781 141.6 17.83 140.886 18.608 141.413C23.5676 144.776 35.7782 152.275 46.9086 152.942C59.8538 153.718 67.173 152.942 72.9506 145.652C80.4386 136.203 86.6779 124.655 97.9291 124.655C105.618 124.655 112.601 127.524 118.098 132.746C119.504 134.081 120.71 136.274 121.703 138.938C122.024 139.8 123.284 139.896 123.733 139.094C128.633 130.358 136.704 124.655 145.831 124.655Z"/>
</mask>
<path d="M145.831 124.655C157.083 124.655 163.322 136.203 170.81 145.652C176.588 152.942 183.907 153.718 196.852 152.942C207.982 152.275 220.193 144.776 225.153 141.413C225.931 140.886 226.98 141.6 226.72 142.504C220.375 164.619 200.13 192.934 166.733 192.934C142.759 192.934 129.05 185.669 122.846 174.979C122.427 174.257 121.333 174.257 120.914 174.979C114.71 185.669 101.002 192.934 77.0287 192.934C43.6311 192.934 23.3856 164.619 17.0402 142.504C16.781 141.6 17.83 140.886 18.608 141.413C23.5676 144.776 35.7782 152.275 46.9086 152.942C59.8538 153.718 67.173 152.942 72.9506 145.652C80.4386 136.203 86.6779 124.655 97.9291 124.655C105.618 124.655 112.601 127.524 118.098 132.746C119.504 134.081 120.71 136.274 121.703 138.938C122.024 139.8 123.284 139.896 123.733 139.094C128.633 130.358 136.704 124.655 145.831 124.655Z" fill="white"/>
<path d="M145.831 124.655V108.655H145.831L145.831 124.655ZM170.81 145.652L158.27 155.589L158.27 155.59L170.81 145.652ZM196.852 152.942L197.809 168.913L196.852 152.942ZM166.733 192.934V208.934H166.733L166.733 192.934ZM77.0287 192.934V208.934H77.0288L77.0287 192.934ZM46.9086 152.942L45.9513 168.913L45.9514 168.913L46.9086 152.942ZM72.9506 145.652L85.49 155.59L85.4902 155.589L72.9506 145.652ZM97.9291 124.655V108.655H97.9291L97.9291 124.655ZM118.098 132.746L129.119 121.146L129.118 121.146L118.098 132.746ZM121.703 138.938L136.696 133.35L121.703 138.938ZM123.733 139.094L109.779 131.267L123.733 139.094ZM18.608 141.413L27.5862 128.17L18.608 141.413ZM122.846 174.979L136.684 166.947L122.846 174.979ZM120.914 174.979L107.076 166.947L120.914 174.979ZM225.153 141.413L216.174 128.17L225.153 141.413ZM226.72 142.504L211.341 138.091L226.72 142.504ZM145.831 124.655V140.655C145.847 140.655 145.799 140.654 145.732 140.636C145.673 140.62 145.702 140.619 145.841 140.693C146.174 140.873 146.937 141.384 148.185 142.686C149.447 144.001 150.812 145.7 152.544 148.003C154.071 150.034 156.241 153.029 158.27 155.589L170.81 145.652L183.35 135.714C181.635 133.55 180.217 131.559 178.117 128.767C176.221 126.247 173.92 123.288 171.279 120.534C165.973 115.003 157.698 108.655 145.831 108.655V124.655ZM170.81 145.652L158.27 155.59C163.388 162.047 169.759 166.03 177.383 167.873C184.087 169.494 191.267 169.305 197.809 168.913L196.852 152.942L195.895 136.97C189.492 137.354 186.54 137.165 184.903 136.77C184.302 136.624 184.123 136.501 184.105 136.489C184.084 136.476 183.832 136.323 183.35 135.714L170.81 145.652ZM196.852 152.942L197.809 168.913C206.282 168.405 214.238 165.432 220.118 162.67C226.193 159.817 231.238 156.618 234.131 154.657L225.153 141.413L216.174 128.17C214.108 129.571 210.568 131.802 206.514 133.706C202.267 135.701 198.552 136.811 195.895 136.97L196.852 152.942ZM226.72 142.504L211.341 138.091C205.924 156.973 189.822 176.934 166.733 176.934L166.733 192.934L166.733 208.934C210.439 208.934 234.827 172.266 242.1 146.916L226.72 142.504ZM166.733 192.934V176.934C145.509 176.934 138.802 170.596 136.684 166.947L122.846 174.979L109.008 183.01C119.299 200.742 140.009 208.934 166.733 208.934V192.934ZM120.914 174.979L107.076 166.947C104.959 170.596 98.2515 176.934 77.0287 176.934L77.0287 192.934L77.0288 208.934C103.753 208.934 124.461 200.742 134.753 183.01L120.914 174.979ZM77.0287 192.934V176.934C53.9391 176.934 37.8371 156.972 32.4197 138.091L17.0402 142.504L1.66071 146.916C8.93403 172.266 33.3231 208.934 77.0287 208.934V192.934ZM18.608 141.413L9.62985 154.657C12.5227 156.618 17.5681 159.817 23.6422 162.67C29.5226 165.432 37.4786 168.405 45.9513 168.913L46.9086 152.942L47.866 136.971C45.2083 136.811 41.4937 135.701 37.2463 133.706C33.1926 131.802 29.6529 129.571 27.5862 128.17L18.608 141.413ZM46.9086 152.942L45.9514 168.913C52.4936 169.305 59.6741 169.494 66.3775 167.873C74.0013 166.03 80.3722 162.047 85.49 155.59L72.9506 145.652L60.4112 135.714C59.9285 136.323 59.6768 136.475 59.6556 136.489C59.6372 136.501 59.4589 136.624 58.8574 136.77C57.2205 137.165 54.2688 137.354 47.8658 136.97L46.9086 152.942ZM72.9506 145.652L85.4902 155.589C87.5193 153.029 89.6892 150.034 91.217 148.003C92.9488 145.7 94.314 144.001 95.5754 142.686C96.8238 141.384 97.5862 140.873 97.9201 140.693C98.0589 140.619 98.0881 140.62 98.0289 140.636C97.9619 140.654 97.9133 140.655 97.9292 140.655L97.9291 124.655L97.9291 108.655C86.0626 108.655 77.7875 115.003 72.4818 120.534C69.841 123.288 67.5393 126.247 65.6435 128.767C63.5439 131.559 62.1259 133.55 60.411 135.714L72.9506 145.652ZM97.9291 124.655V140.655C101.431 140.655 104.492 141.889 107.078 144.345L118.098 132.746L129.118 121.146C120.711 113.158 109.805 108.655 97.9291 108.655V124.655ZM118.098 132.746L107.077 144.345C106.682 143.969 106.436 143.663 106.315 143.502C106.192 143.339 106.152 143.262 106.178 143.307C106.202 143.349 106.268 143.47 106.367 143.685C106.464 143.899 106.581 144.177 106.711 144.527L121.703 138.938L136.696 133.35C135.4 129.873 133.151 124.977 129.119 121.146L118.098 132.746ZM123.733 139.094L137.688 146.921C140.504 141.9 143.873 140.655 145.832 140.655L145.831 124.655L145.831 108.655C129.535 108.655 116.763 118.816 109.779 131.267L123.733 139.094ZM121.703 138.938L106.711 144.527C111.807 158.197 130.594 159.569 137.688 146.921L123.733 139.094L109.779 131.267C113.085 125.373 119.145 123.324 123.89 123.686C128.638 124.049 134.33 127.002 136.696 133.35L121.703 138.938ZM17.0402 142.504L32.4197 138.091C34.4357 145.118 31.063 151.46 26.5174 154.594C22.0639 157.665 15.3252 158.518 9.62985 154.657L18.608 141.413L27.5862 128.17C15.6545 120.081 -3.12902 130.222 1.66071 146.916L17.0402 142.504ZM122.846 174.979L136.684 166.947C130.099 155.601 113.662 155.601 107.076 166.947L120.914 174.979L134.753 183.01C129.005 192.914 114.756 192.913 109.008 183.01L122.846 174.979ZM225.153 141.413L234.131 154.657C228.435 158.518 221.697 157.665 217.243 154.594C212.698 151.46 209.325 145.118 211.341 138.091L226.72 142.504L242.1 146.916C246.89 130.222 228.106 120.081 216.174 128.17L225.153 141.413Z" fill="#1C1C1E" mask="url(#path-5-outside-1_68_25)"/>
</svg>
