<svg width="1263" height="172" viewBox="0 0 1263 172" fill="none" xmlns="http://www.w3.org/2000/svg">
<path d="M55.94 136.9C43.78 136.9 33.5833 135.127 25.35 131.58C17.2433 128.033 11.1 123.41 6.92 117.71C2.74 112.01 0.523333 105.93 0.27 99.47C0.27 98.4567 0.65 97.57 1.41 96.81C2.17 95.9233 3.12 95.48 4.26 95.48H24.59C26.2367 95.48 27.5033 95.86 28.39 96.62C29.2767 97.2533 30.1 98.0767 30.86 99.09C31.7467 101.243 33.14 103.333 35.04 105.36C37.0667 107.387 39.79 109.097 43.21 110.49C46.63 111.757 50.8733 112.39 55.94 112.39C64.1733 112.39 70.3167 111.06 74.37 108.4C78.55 105.74 80.64 102.13 80.64 97.57C80.64 94.2767 79.5 91.6167 77.22 89.59C75.0667 87.5633 71.5833 85.7267 66.77 84.08C62.0833 82.4333 55.8133 80.66 47.96 78.76C38.46 76.7333 30.3533 74.1367 23.64 70.97C17.0533 67.6767 12.05 63.4967 8.63 58.43C5.33667 53.2367 3.69 46.84 3.69 39.24C3.69 31.64 5.78 24.9267 9.96 19.1C14.14 13.1467 20.03 8.52333 27.63 5.22999C35.23 1.80999 44.2867 0.0999928 54.8 0.0999928C63.2867 0.0999928 70.76 1.23999 77.22 3.51999C83.8067 5.79999 89.2533 8.77666 93.56 12.45C97.9933 16.1233 101.35 20.05 103.63 24.23C105.91 28.41 107.113 32.4633 107.24 36.39C107.24 37.4033 106.86 38.3533 106.1 39.24C105.34 40 104.39 40.38 103.25 40.38H81.97C80.7033 40.38 79.5633 40.1267 78.55 39.62C77.5367 39.1133 76.7133 38.2267 76.08 36.96C75.32 33.6667 73.04 30.8167 69.24 28.41C65.5667 25.8767 60.7533 24.61 54.8 24.61C48.5933 24.61 43.6533 25.75 39.98 28.03C36.4333 30.31 34.66 33.7933 34.66 38.48C34.66 41.52 35.5467 44.1167 37.32 46.27C39.22 48.2967 42.3233 50.1333 46.63 51.78C51.0633 53.3 56.89 55.01 64.11 56.91C75.2567 59.19 84.3133 61.9133 91.28 65.08C98.2467 68.2467 103.377 72.3633 106.67 77.43C109.963 82.37 111.61 88.64 111.61 96.24C111.61 104.727 109.203 112.01 104.39 118.09C99.7033 124.17 93.18 128.857 84.82 132.15C76.5867 135.317 66.96 136.9 55.94 136.9ZM177.415 135C169.562 135 162.849 133.733 157.275 131.2C151.702 128.54 147.459 124.487 144.545 119.04C141.759 113.593 140.365 106.753 140.365 98.52V58.62H125.545C124.152 58.62 123.012 58.1767 122.125 57.29C121.239 56.4033 120.795 55.2633 120.795 53.87V40.95C120.795 39.5567 121.239 38.4167 122.125 37.53C123.012 36.6433 124.152 36.2 125.545 36.2H140.365V4.84999C140.365 3.45666 140.809 2.31666 141.695 1.43C142.709 0.543328 143.849 0.0999928 145.115 0.0999928H163.735C165.129 0.0999928 166.269 0.543328 167.155 1.43C168.042 2.31666 168.485 3.45666 168.485 4.84999V36.2H192.235C193.502 36.2 194.579 36.6433 195.465 37.53C196.352 38.4167 196.795 39.5567 196.795 40.95V53.87C196.795 55.2633 196.352 56.4033 195.465 57.29C194.579 58.1767 193.502 58.62 192.235 58.62H168.485V96.24C168.485 101.053 169.309 104.853 170.955 107.64C172.729 110.3 175.769 111.63 180.075 111.63H193.945C195.212 111.63 196.289 112.073 197.175 112.96C198.062 113.847 198.505 114.923 198.505 116.19V130.25C198.505 131.643 198.062 132.783 197.175 133.67C196.289 134.557 195.212 135 193.945 135H177.415ZM244.151 136.9C237.438 136.9 231.421 135.633 226.101 133.1C220.781 130.44 216.538 126.893 213.371 122.46C210.205 118.027 208.621 113.087 208.621 107.64C208.621 98.6467 212.231 91.5533 219.451 86.36C226.798 81.1667 236.425 77.62 248.331 75.72L273.221 72.11V68.69C273.221 63.75 272.081 59.95 269.801 57.29C267.521 54.63 263.531 53.3 257.831 53.3C253.651 53.3 250.295 54.1233 247.761 55.77C245.228 57.4167 243.265 59.57 241.871 62.23C240.858 63.8767 239.401 64.7 237.501 64.7H219.451C218.058 64.7 216.981 64.32 216.221 63.56C215.461 62.6733 215.145 61.66 215.271 60.52C215.271 58.3667 216.095 55.8333 217.741 52.92C219.388 50.0067 221.921 47.1567 225.341 44.37C228.761 41.4567 233.131 39.05 238.451 37.15C243.771 35.25 250.295 34.3 258.021 34.3C266.001 34.3 272.841 35.25 278.541 37.15C284.241 39.05 288.801 41.71 292.221 45.13C295.641 48.55 298.175 52.54 299.821 57.1C301.468 61.5333 302.291 66.3467 302.291 71.54V130.25C302.291 131.643 301.848 132.783 300.961 133.67C300.075 134.557 298.935 135 297.541 135H278.921C277.655 135 276.578 134.557 275.691 133.67C274.805 132.783 274.361 131.643 274.361 130.25V123.22C272.715 125.627 270.498 127.907 267.711 130.06C264.925 132.087 261.568 133.733 257.641 135C253.841 136.267 249.345 136.9 244.151 136.9ZM251.751 117.14C255.931 117.14 259.668 116.253 262.961 114.48C266.255 112.707 268.851 109.983 270.751 106.31C272.651 102.637 273.601 98.0133 273.601 92.44V89.21L255.931 92.06C249.091 93.2 244.088 94.91 240.921 97.19C237.755 99.47 236.171 102.257 236.171 105.55C236.171 107.957 236.868 110.047 238.261 111.82C239.781 113.593 241.745 114.923 244.151 115.81C246.558 116.697 249.091 117.14 251.751 117.14ZM330.046 171.1C328.653 171.1 327.513 170.657 326.626 169.77C325.74 168.883 325.296 167.743 325.296 166.35V40.95C325.296 39.5567 325.74 38.4167 326.626 37.53C327.513 36.6433 328.653 36.2 330.046 36.2H348.096C349.49 36.2 350.63 36.6433 351.516 37.53C352.403 38.4167 352.846 39.5567 352.846 40.95V48.17C355.886 44.1167 359.813 40.8233 364.626 38.29C369.44 35.63 375.456 34.3 382.676 34.3C389.263 34.3 394.963 35.3767 399.776 37.53C404.716 39.5567 408.833 42.5333 412.126 46.46C415.546 50.26 418.143 54.8833 419.916 60.33C421.816 65.7767 422.893 71.92 423.146 78.76C423.273 81.1667 423.336 83.4467 423.336 85.6C423.336 87.7533 423.273 90.0967 423.146 92.63C423.02 99.09 422.006 105.043 420.106 110.49C418.333 115.937 415.736 120.623 412.316 124.55C408.896 128.477 404.716 131.517 399.776 133.67C394.963 135.823 389.263 136.9 382.676 136.9C376.216 136.9 370.58 135.76 365.766 133.48C361.08 131.073 357.216 127.843 354.176 123.79V166.35C354.176 167.743 353.733 168.883 352.846 169.77C351.96 170.657 350.883 171.1 349.616 171.1H330.046ZM374.126 114.1C378.94 114.1 382.74 113.087 385.526 111.06C388.313 108.907 390.276 106.12 391.416 102.7C392.683 99.28 393.443 95.5433 393.696 91.49C393.95 87.5633 393.95 83.6367 393.696 79.71C393.443 75.6567 392.683 71.92 391.416 68.5C390.276 65.08 388.313 62.3567 385.526 60.33C382.74 58.1767 378.94 57.1 374.126 57.1C369.44 57.1 365.64 58.1767 362.726 60.33C359.813 62.4833 357.723 65.2067 356.456 68.5C355.19 71.7933 354.43 75.34 354.176 79.14C354.05 81.42 353.986 83.7633 353.986 86.17C353.986 88.5767 354.05 90.9833 354.176 93.39C354.303 96.9367 355.063 100.293 356.456 103.46C357.976 106.5 360.13 109.033 362.916 111.06C365.83 113.087 369.566 114.1 374.126 114.1ZM448.24 135C446.846 135 445.706 134.557 444.82 133.67C443.933 132.783 443.49 131.643 443.49 130.25V4.84999C443.49 3.45666 443.933 2.31666 444.82 1.43C445.706 0.543328 446.846 0.0999928 448.24 0.0999928H467.24C468.506 0.0999928 469.583 0.543328 470.47 1.43C471.356 2.31666 471.8 3.45666 471.8 4.84999V130.25C471.8 131.643 471.356 132.783 470.47 133.67C469.583 134.557 468.506 135 467.24 135H448.24ZM539.894 136.9C525.327 136.9 513.737 132.847 505.124 124.74C496.637 116.633 492.14 104.853 491.634 89.4C491.634 88.3867 491.634 87.0567 491.634 85.41C491.634 83.6367 491.634 82.2433 491.634 81.23C492.14 71.4767 494.357 63.1167 498.284 56.15C502.21 49.0567 507.72 43.6733 514.814 40C521.907 36.2 530.204 34.3 539.704 34.3C550.344 34.3 559.21 36.5167 566.304 40.95C573.524 45.2567 578.907 51.21 582.454 58.81C586.127 66.2833 587.964 74.8967 587.964 84.65V89.02C587.964 90.2867 587.457 91.3633 586.444 92.25C585.557 93.1367 584.48 93.58 583.214 93.58H521.084C521.084 93.7067 521.084 93.96 521.084 94.34C521.084 94.5933 521.084 94.8467 521.084 95.1C521.21 99.1533 521.97 102.89 523.364 106.31C524.884 109.603 526.974 112.263 529.634 114.29C532.42 116.317 535.714 117.33 539.514 117.33C542.68 117.33 545.277 116.887 547.304 116C549.33 115.113 550.977 114.037 552.244 112.77C553.637 111.503 554.65 110.427 555.284 109.54C556.424 108.273 557.31 107.513 557.944 107.26C558.704 106.88 559.844 106.69 561.364 106.69H581.124C582.39 106.69 583.404 107.07 584.164 107.83C585.05 108.463 585.43 109.413 585.304 110.68C585.177 112.707 584.1 115.24 582.074 118.28C580.174 121.193 577.324 124.107 573.524 127.02C569.724 129.807 564.974 132.15 559.274 134.05C553.7 135.95 547.24 136.9 539.894 136.9ZM521.084 76.29H558.324V75.91C558.324 71.35 557.564 67.4233 556.044 64.13C554.65 60.71 552.56 58.05 549.774 56.15C546.987 54.25 543.63 53.3 539.704 53.3C535.777 53.3 532.42 54.25 529.634 56.15C526.847 58.05 524.694 60.71 523.174 64.13C521.78 67.4233 521.084 71.35 521.084 75.91V76.29ZM704.37 136.9C692.463 136.9 682.267 134.937 673.78 131.01C665.42 126.957 658.897 121.13 654.21 113.53C649.65 105.803 647.18 96.4933 646.8 85.6C646.673 80.1533 646.61 74.3267 646.61 68.12C646.61 61.9133 646.673 56.0233 646.8 50.45C647.18 39.81 649.65 30.7533 654.21 23.28C658.897 15.8067 665.483 10.1067 673.97 6.17999C682.583 2.12666 692.717 0.0999928 704.37 0.0999928C713.743 0.0999928 721.977 1.30333 729.07 3.70999C736.163 6.11666 742.117 9.28332 746.93 13.21C751.743 17.01 755.417 21.19 757.95 25.75C760.483 30.31 761.813 34.68 761.94 38.86C761.94 40 761.56 41.0133 760.8 41.9C760.04 42.66 759.027 43.04 757.76 43.04H734.2C732.933 43.04 731.92 42.7867 731.16 42.28C730.527 41.7733 729.957 41.0133 729.45 40C728.563 37.72 727.107 35.44 725.08 33.16C723.18 30.7533 720.583 28.7267 717.29 27.08C713.997 25.4333 709.69 24.61 704.37 24.61C696.39 24.61 690.057 26.7 685.37 30.88C680.81 35.06 678.34 41.9 677.96 51.4C677.58 62.2933 677.58 73.3767 677.96 84.65C678.34 94.53 680.873 101.623 685.56 105.93C690.373 110.237 696.77 112.39 704.75 112.39C709.943 112.39 714.567 111.503 718.62 109.73C722.8 107.83 726.093 104.917 728.5 100.99C730.907 97.0633 732.11 92.06 732.11 85.98V81.23H711.4C710.133 81.23 709.057 80.7867 708.17 79.9C707.283 78.8867 706.84 77.7467 706.84 76.48V64.32C706.84 62.9267 707.283 61.7867 708.17 60.9C709.057 60.0133 710.133 59.57 711.4 59.57H757.95C759.343 59.57 760.483 60.0133 761.37 60.9C762.257 61.7867 762.7 62.9267 762.7 64.32V85.03C762.7 95.9233 760.293 105.233 755.48 112.96C750.793 120.687 744.017 126.64 735.15 130.82C726.41 134.873 716.15 136.9 704.37 136.9ZM812.853 136.9C806.139 136.9 800.123 135.633 794.803 133.1C789.483 130.44 785.239 126.893 782.073 122.46C778.906 118.027 777.323 113.087 777.323 107.64C777.323 98.6467 780.933 91.5533 788.153 86.36C795.499 81.1667 805.126 77.62 817.033 75.72L841.923 72.11V68.69C841.923 63.75 840.783 59.95 838.503 57.29C836.223 54.63 832.233 53.3 826.533 53.3C822.353 53.3 818.996 54.1233 816.463 55.77C813.929 57.4167 811.966 59.57 810.573 62.23C809.559 63.8767 808.103 64.7 806.203 64.7H788.153C786.759 64.7 785.683 64.32 784.923 63.56C784.163 62.6733 783.846 61.66 783.973 60.52C783.973 58.3667 784.796 55.8333 786.443 52.92C788.089 50.0067 790.623 47.1567 794.043 44.37C797.463 41.4567 801.833 39.05 807.153 37.15C812.473 35.25 818.996 34.3 826.723 34.3C834.703 34.3 841.543 35.25 847.243 37.15C852.943 39.05 857.503 41.71 860.923 45.13C864.343 48.55 866.876 52.54 868.523 57.1C870.169 61.5333 870.993 66.3467 870.993 71.54V130.25C870.993 131.643 870.549 132.783 869.663 133.67C868.776 134.557 867.636 135 866.243 135H847.623C846.356 135 845.279 134.557 844.393 133.67C843.506 132.783 843.063 131.643 843.063 130.25V123.22C841.416 125.627 839.199 127.907 836.413 130.06C833.626 132.087 830.269 133.733 826.343 135C822.542 136.267 818.046 136.9 812.853 136.9ZM820.453 117.14C824.633 117.14 828.369 116.253 831.663 114.48C834.956 112.707 837.553 109.983 839.453 106.31C841.353 102.637 842.303 98.0133 842.303 92.44V89.21L824.633 92.06C817.793 93.2 812.789 94.91 809.623 97.19C806.456 99.47 804.873 102.257 804.873 105.55C804.873 107.957 805.569 110.047 806.963 111.82C808.483 113.593 810.446 114.923 812.853 115.81C815.259 116.697 817.793 117.14 820.453 117.14ZM898.557 135C897.291 135 896.214 134.557 895.327 133.67C894.441 132.783 893.997 131.643 893.997 130.25V40.95C893.997 39.5567 894.441 38.4167 895.327 37.53C896.214 36.6433 897.291 36.2 898.557 36.2H916.227C917.494 36.2 918.571 36.6433 919.457 37.53C920.471 38.4167 920.977 39.5567 920.977 40.95V47.41C923.511 43.8633 926.994 40.8233 931.427 38.29C935.987 35.7567 941.371 34.4267 947.577 34.3C962.271 34.0467 972.341 39.62 977.787 51.02C980.701 46.08 984.881 42.09 990.327 39.05C995.901 35.8833 1001.98 34.3 1008.57 34.3C1015.15 34.3 1021.11 35.82 1026.43 38.86C1031.75 41.7733 1035.93 46.3333 1038.97 52.54C1042.13 58.62 1043.72 66.4733 1043.72 76.1V130.25C1043.72 131.643 1043.27 132.783 1042.39 133.67C1041.5 134.557 1040.42 135 1039.16 135H1020.35C1019.08 135 1018 134.557 1017.12 133.67C1016.23 132.783 1015.79 131.643 1015.79 130.25V77.62C1015.79 72.4267 1015.03 68.3733 1013.51 65.46C1011.99 62.42 1009.96 60.2667 1007.43 59C1005.02 57.7333 1002.3 57.1 999.257 57.1C996.597 57.1 994.001 57.7333 991.467 59C989.061 60.2667 987.034 62.42 985.387 65.46C983.867 68.3733 983.107 72.4267 983.107 77.62V130.25C983.107 131.643 982.664 132.783 981.777 133.67C980.891 134.557 979.751 135 978.357 135H959.737C958.344 135 957.204 134.557 956.317 133.67C955.431 132.783 954.987 131.643 954.987 130.25V77.62C954.987 72.4267 954.227 68.3733 952.707 65.46C951.187 62.42 949.161 60.2667 946.627 59C944.221 57.7333 941.561 57.1 938.647 57.1C935.987 57.1 933.391 57.7967 930.857 59.19C928.324 60.4567 926.234 62.5467 924.587 65.46C923.067 68.3733 922.307 72.3633 922.307 77.43V130.25C922.307 131.643 921.864 132.783 920.977 133.67C920.091 134.557 919.014 135 917.747 135H898.557ZM1110.82 136.9C1096.25 136.9 1084.66 132.847 1076.05 124.74C1067.56 116.633 1063.07 104.853 1062.56 89.4C1062.56 88.3867 1062.56 87.0567 1062.56 85.41C1062.56 83.6367 1062.56 82.2433 1062.56 81.23C1063.07 71.4767 1065.28 63.1167 1069.21 56.15C1073.14 49.0567 1078.65 43.6733 1085.74 40C1092.83 36.2 1101.13 34.3 1110.63 34.3C1121.27 34.3 1130.14 36.5167 1137.23 40.95C1144.45 45.2567 1149.83 51.21 1153.38 58.81C1157.05 66.2833 1158.89 74.8967 1158.89 84.65V89.02C1158.89 90.2867 1158.38 91.3633 1157.37 92.25C1156.48 93.1367 1155.41 93.58 1154.14 93.58H1092.01C1092.01 93.7067 1092.01 93.96 1092.01 94.34C1092.01 94.5933 1092.01 94.8467 1092.01 95.1C1092.14 99.1533 1092.9 102.89 1094.29 106.31C1095.81 109.603 1097.9 112.263 1100.56 114.29C1103.35 116.317 1106.64 117.33 1110.44 117.33C1113.61 117.33 1116.2 116.887 1118.23 116C1120.26 115.113 1121.9 114.037 1123.17 112.77C1124.56 111.503 1125.58 110.427 1126.21 109.54C1127.35 108.273 1128.24 107.513 1128.87 107.26C1129.63 106.88 1130.77 106.69 1132.29 106.69H1152.05C1153.32 106.69 1154.33 107.07 1155.09 107.83C1155.98 108.463 1156.36 109.413 1156.23 110.68C1156.1 112.707 1155.03 115.24 1153 118.28C1151.1 121.193 1148.25 124.107 1144.45 127.02C1140.65 129.807 1135.9 132.15 1130.2 134.05C1124.63 135.95 1118.17 136.9 1110.82 136.9ZM1092.01 76.29H1129.25V75.91C1129.25 71.35 1128.49 67.4233 1126.97 64.13C1125.58 60.71 1123.49 58.05 1120.7 56.15C1117.91 54.25 1114.56 53.3 1110.63 53.3C1106.7 53.3 1103.35 54.25 1100.56 56.15C1097.77 58.05 1095.62 60.71 1094.1 64.13C1092.71 67.4233 1092.01 71.35 1092.01 75.91V76.29ZM1216.83 136.9C1208.98 136.9 1202.2 136.013 1196.5 134.24C1190.93 132.34 1186.37 130.06 1182.82 127.4C1179.4 124.74 1176.81 122.08 1175.03 119.42C1173.39 116.633 1172.5 114.29 1172.37 112.39C1172.25 110.997 1172.69 109.857 1173.7 108.97C1174.72 108.083 1175.73 107.64 1176.74 107.64H1195.17C1195.55 107.64 1195.93 107.703 1196.31 107.83C1196.69 107.957 1197.07 108.273 1197.45 108.78C1199.1 109.92 1200.81 111.25 1202.58 112.77C1204.36 114.163 1206.38 115.367 1208.66 116.38C1211.07 117.393 1214.05 117.9 1217.59 117.9C1221.77 117.9 1225.32 117.077 1228.23 115.43C1231.15 113.657 1232.6 111.187 1232.6 108.02C1232.6 105.74 1231.91 103.84 1230.51 102.32C1229.25 100.8 1226.78 99.4067 1223.1 98.14C1219.43 96.8733 1213.98 95.48 1206.76 93.96C1199.92 92.44 1194.1 90.4133 1189.28 87.88C1184.47 85.3467 1180.86 82.18 1178.45 78.38C1176.05 74.4533 1174.84 69.7667 1174.84 64.32C1174.84 59.38 1176.36 54.63 1179.4 50.07C1182.57 45.51 1187.19 41.7733 1193.27 38.86C1199.35 35.82 1206.95 34.3 1216.07 34.3C1223.04 34.3 1229.12 35.1867 1234.31 36.96C1239.63 38.6067 1244.07 40.76 1247.61 43.42C1251.16 45.9533 1253.82 48.6133 1255.59 51.4C1257.49 54.06 1258.51 56.4033 1258.63 58.43C1258.76 59.6967 1258.38 60.7733 1257.49 61.66C1256.61 62.5467 1255.59 62.99 1254.45 62.99H1237.54C1236.91 62.99 1236.34 62.9267 1235.83 62.8C1235.33 62.5467 1234.88 62.23 1234.5 61.85C1232.98 60.8367 1231.4 59.6967 1229.75 58.43C1228.23 57.0367 1226.4 55.8333 1224.24 54.82C1222.09 53.8067 1219.3 53.3 1215.88 53.3C1211.7 53.3 1208.47 54.25 1206.19 56.15C1204.04 57.9233 1202.96 60.2033 1202.96 62.99C1202.96 64.7633 1203.53 66.41 1204.67 67.93C1205.81 69.45 1208.16 70.8433 1211.7 72.11C1215.25 73.3767 1220.63 74.7067 1227.85 76.1C1236.47 77.62 1243.31 79.9 1248.37 82.94C1253.44 85.98 1257.05 89.5267 1259.2 93.58C1261.48 97.5067 1262.62 101.75 1262.62 106.31C1262.62 112.263 1260.85 117.583 1257.3 122.27C1253.76 126.83 1248.56 130.44 1241.72 133.1C1235.01 135.633 1226.71 136.9 1216.83 136.9Z" fill="#1C1C1E"/>
</svg>
